<mxfile host="app.diagrams.net" modified="2022-08-31T02:37:22.700Z" agent="5.0 (Macintosh; Intel Mac OS X 10_15_7) AppleWebKit/537.36 (KHTML, like Gecko) Chrome/98.0.4758.80 Safari/537.36 Edg/98.0.1108.43" etag="hmZsmK4RLG620lo1_Akt" version="20.2.7" type="github">
  <diagram id="xtKa3n5u4Cj6ajRREuk9" name="第 1 页">
    <mxGraphModel dx="1226" dy="2330" grid="1" gridSize="10" guides="1" tooltips="1" connect="1" arrows="1" fold="1" page="1" pageScale="1" pageWidth="827" pageHeight="1169" math="0" shadow="0">
      <root>
        <mxCell id="0" />
        <mxCell id="1" parent="0" />
        <mxCell id="LYip8ZhevDrjSwZSwDEI-1" value="" style="rounded=1;whiteSpace=wrap;html=1;fillColor=#eff1f3;strokeColor=none;shadow=0;glass=0;comic=0;gradientColor=none;fontFamily=Courier New;fontColor=#FFFFFF;" vertex="1" parent="1">
          <mxGeometry x="250" y="-200" width="390" height="250" as="geometry" />
        </mxCell>
        <mxCell id="LYip8ZhevDrjSwZSwDEI-149" style="edgeStyle=none;rounded=0;orthogonalLoop=1;jettySize=auto;html=1;exitX=0.5;exitY=0;exitDx=0;exitDy=0;entryX=0.5;entryY=1;entryDx=0;entryDy=0;dashed=1;endArrow=none;endFill=0;strokeColor=#4D4D4D;strokeWidth=2;" edge="1" parent="1" source="LYip8ZhevDrjSwZSwDEI-2" target="LYip8ZhevDrjSwZSwDEI-5">
          <mxGeometry relative="1" as="geometry" />
        </mxCell>
        <mxCell id="LYip8ZhevDrjSwZSwDEI-2" value="&lt;font face=&quot;Courier New&quot; color=&quot;#ffffff&quot;&gt;效率&lt;/font&gt;" style="rounded=1;whiteSpace=wrap;html=1;fillColor=#79d9ce;strokeColor=none;shadow=1;glass=0;comic=0;gradientColor=none;" vertex="1" parent="1">
          <mxGeometry x="320" y="-20" width="90" height="30" as="geometry" />
        </mxCell>
        <mxCell id="LYip8ZhevDrjSwZSwDEI-147" style="rounded=0;orthogonalLoop=1;jettySize=auto;html=1;exitX=0.5;exitY=1;exitDx=0;exitDy=0;strokeColor=#4D4D4D;strokeWidth=2;dashed=1;endArrow=none;endFill=0;" edge="1" parent="1" source="LYip8ZhevDrjSwZSwDEI-5" target="LYip8ZhevDrjSwZSwDEI-12">
          <mxGeometry relative="1" as="geometry" />
        </mxCell>
        <mxCell id="LYip8ZhevDrjSwZSwDEI-5" value="个性化" style="rounded=1;whiteSpace=wrap;html=1;fillColor=#f19a97;strokeColor=none;shadow=1;glass=0;comic=0;gradientColor=none;fontFamily=Courier New;fontColor=#FFFFFF;align=center;verticalAlign=middle;" vertex="1" parent="1">
          <mxGeometry x="400" y="-140" width="90" height="30" as="geometry" />
        </mxCell>
        <mxCell id="LYip8ZhevDrjSwZSwDEI-148" style="edgeStyle=none;rounded=0;orthogonalLoop=1;jettySize=auto;html=1;exitX=0;exitY=0.5;exitDx=0;exitDy=0;entryX=1;entryY=0.5;entryDx=0;entryDy=0;dashed=1;endArrow=none;endFill=0;strokeColor=#4D4D4D;strokeWidth=2;" edge="1" parent="1" source="LYip8ZhevDrjSwZSwDEI-12" target="LYip8ZhevDrjSwZSwDEI-2">
          <mxGeometry relative="1" as="geometry" />
        </mxCell>
        <mxCell id="LYip8ZhevDrjSwZSwDEI-12" value="质量" style="rounded=1;whiteSpace=wrap;html=1;fillColor=#77aac2;strokeColor=none;shadow=1;glass=0;comic=0;gradientColor=none;fontFamily=Courier New;fontColor=#FFFFFF;" vertex="1" parent="1">
          <mxGeometry x="480" y="-20" width="90" height="30" as="geometry" />
        </mxCell>
        <mxCell id="LYip8ZhevDrjSwZSwDEI-18" value="&lt;font face=&quot;Comic Sans MS&quot; style=&quot;font-size: 17px&quot;&gt;&lt;font color=&quot;#696773&quot;&gt;产品研发「&lt;/font&gt;&lt;/font&gt;&lt;span style=&quot;color: rgb(105, 103, 115); font-family: &amp;quot;Comic Sans MS&amp;quot;; font-size: 17px;&quot;&gt;不可能&lt;/span&gt;&lt;font face=&quot;Comic Sans MS&quot; style=&quot;font-size: 17px&quot;&gt;&lt;font color=&quot;#696773&quot;&gt;」三角&lt;/font&gt;&lt;br&gt;&lt;/font&gt;" style="text;html=1;strokeColor=none;fillColor=none;align=center;verticalAlign=middle;whiteSpace=wrap;rounded=0;" vertex="1" parent="1">
          <mxGeometry x="265" y="-200" width="360" height="60" as="geometry" />
        </mxCell>
        <mxCell id="LYip8ZhevDrjSwZSwDEI-19" value="" style="rounded=1;whiteSpace=wrap;html=1;strokeColor=none;shadow=0;glass=0;comic=0;gradientColor=none;fontFamily=Courier New;fontColor=#FFFFFF;fillColor=#f4f1de;" vertex="1" parent="1">
          <mxGeometry x="230" y="170" width="390" height="250" as="geometry" />
        </mxCell>
        <mxCell id="LYip8ZhevDrjSwZSwDEI-20" value="&lt;font color=&quot;#ffffff&quot; face=&quot;Courier New&quot;&gt;animals&lt;/font&gt;" style="rounded=1;whiteSpace=wrap;html=1;strokeColor=none;shadow=1;glass=0;comic=0;gradientColor=none;fillColor=#81b29a;" vertex="1" parent="1">
          <mxGeometry x="240" y="290" width="90" height="30" as="geometry" />
        </mxCell>
        <mxCell id="LYip8ZhevDrjSwZSwDEI-21" value="" style="endArrow=classic;html=1;exitX=1;exitY=0.5;exitDx=0;exitDy=0;strokeWidth=2;dashed=1;strokeColor=#696773;entryX=0;entryY=0.5;entryDx=0;entryDy=0;rounded=0;" edge="1" source="LYip8ZhevDrjSwZSwDEI-20" target="LYip8ZhevDrjSwZSwDEI-24" parent="1">
          <mxGeometry width="50" height="50" relative="1" as="geometry">
            <mxPoint x="380" y="350" as="sourcePoint" />
            <mxPoint x="410" y="305" as="targetPoint" />
          </mxGeometry>
        </mxCell>
        <mxCell id="LYip8ZhevDrjSwZSwDEI-22" value="&lt;b style=&quot;color: rgb(105 , 103 , 115)&quot;&gt;category2&lt;/b&gt;" style="edgeLabel;html=1;align=center;verticalAlign=middle;resizable=0;points=[];fontFamily=Courier New;fontColor=#FFFFFF;labelBackgroundColor=none;" vertex="1" connectable="0" parent="LYip8ZhevDrjSwZSwDEI-21">
          <mxGeometry x="0.0311" y="2" relative="1" as="geometry">
            <mxPoint x="7" y="-13" as="offset" />
          </mxGeometry>
        </mxCell>
        <mxCell id="LYip8ZhevDrjSwZSwDEI-23" value="cat" style="rounded=1;whiteSpace=wrap;html=1;strokeColor=none;shadow=1;glass=0;comic=0;gradientColor=none;fontFamily=Courier New;fontColor=#FFFFFF;fillColor=#e07a5f;" vertex="1" parent="1">
          <mxGeometry x="510" y="240" width="90" height="30" as="geometry" />
        </mxCell>
        <mxCell id="LYip8ZhevDrjSwZSwDEI-24" value="dog" style="rounded=1;whiteSpace=wrap;html=1;strokeColor=none;shadow=1;glass=0;comic=0;gradientColor=none;fontFamily=Courier New;fontColor=#FFFFFF;fillColor=#e07a5f;" vertex="1" parent="1">
          <mxGeometry x="510" y="290" width="90" height="30" as="geometry" />
        </mxCell>
        <mxCell id="LYip8ZhevDrjSwZSwDEI-25" value="pig" style="rounded=1;whiteSpace=wrap;html=1;strokeColor=none;shadow=1;glass=0;comic=0;gradientColor=none;fontFamily=Courier New;fontColor=#FFFFFF;fillColor=#e07a5f;" vertex="1" parent="1">
          <mxGeometry x="510" y="340" width="90" height="30" as="geometry" />
        </mxCell>
        <mxCell id="LYip8ZhevDrjSwZSwDEI-26" value="" style="endArrow=classic;html=1;exitX=1;exitY=0.25;exitDx=0;exitDy=0;strokeWidth=2;dashed=1;strokeColor=#696773;entryX=0;entryY=0.5;entryDx=0;entryDy=0;rounded=0;" edge="1" source="LYip8ZhevDrjSwZSwDEI-20" target="LYip8ZhevDrjSwZSwDEI-23" parent="1">
          <mxGeometry width="50" height="50" relative="1" as="geometry">
            <mxPoint x="380" y="350" as="sourcePoint" />
            <mxPoint x="410" y="305" as="targetPoint" />
            <Array as="points">
              <mxPoint x="370" y="298" />
              <mxPoint x="370" y="255" />
            </Array>
          </mxGeometry>
        </mxCell>
        <mxCell id="LYip8ZhevDrjSwZSwDEI-27" value="&lt;font color=&quot;#696773&quot;&gt;&lt;b&gt;category1&lt;/b&gt;&lt;/font&gt;" style="edgeLabel;html=1;align=center;verticalAlign=middle;resizable=0;points=[];fontFamily=Courier New;fontColor=#FFFFFF;labelBackgroundColor=none;" vertex="1" connectable="0" parent="LYip8ZhevDrjSwZSwDEI-26">
          <mxGeometry x="0.2736" y="1" relative="1" as="geometry">
            <mxPoint y="-14" as="offset" />
          </mxGeometry>
        </mxCell>
        <mxCell id="LYip8ZhevDrjSwZSwDEI-28" value="" style="endArrow=classic;html=1;exitX=1;exitY=0.75;exitDx=0;exitDy=0;strokeWidth=2;dashed=1;strokeColor=#696773;entryX=0;entryY=0.5;entryDx=0;entryDy=0;rounded=0;" edge="1" source="LYip8ZhevDrjSwZSwDEI-20" target="LYip8ZhevDrjSwZSwDEI-25" parent="1">
          <mxGeometry width="50" height="50" relative="1" as="geometry">
            <mxPoint x="380" y="350" as="sourcePoint" />
            <mxPoint x="410" y="305" as="targetPoint" />
            <Array as="points">
              <mxPoint x="370" y="313" />
              <mxPoint x="370" y="355" />
            </Array>
          </mxGeometry>
        </mxCell>
        <mxCell id="LYip8ZhevDrjSwZSwDEI-29" value="&lt;b style=&quot;color: rgb(105 , 103 , 115)&quot;&gt;category3&lt;/b&gt;" style="edgeLabel;html=1;align=center;verticalAlign=middle;resizable=0;points=[];fontFamily=Courier New;fontColor=#FFFFFF;labelBackgroundColor=none;" vertex="1" connectable="0" parent="LYip8ZhevDrjSwZSwDEI-28">
          <mxGeometry x="0.1604" y="3" relative="1" as="geometry">
            <mxPoint x="13" y="-12" as="offset" />
          </mxGeometry>
        </mxCell>
        <mxCell id="LYip8ZhevDrjSwZSwDEI-30" value="color1&lt;br&gt;#3d405b" style="rounded=1;whiteSpace=wrap;html=1;strokeColor=none;shadow=1;glass=0;comic=0;gradientColor=none;fontFamily=Courier New;fontColor=#FFFFFF;fillColor=#3d405b;" vertex="1" parent="1">
          <mxGeometry x="640" y="160" width="90" height="30" as="geometry" />
        </mxCell>
        <mxCell id="LYip8ZhevDrjSwZSwDEI-31" value="color2&lt;br&gt;#81b29a" style="rounded=1;whiteSpace=wrap;html=1;strokeColor=none;shadow=1;glass=0;comic=0;gradientColor=none;fontFamily=Courier New;fontColor=#FFFFFF;fillColor=#81b29a;" vertex="1" parent="1">
          <mxGeometry x="630" y="220" width="90" height="30" as="geometry" />
        </mxCell>
        <mxCell id="LYip8ZhevDrjSwZSwDEI-32" value="color3&lt;br&gt;#f2cc8f" style="rounded=1;whiteSpace=wrap;html=1;strokeColor=none;shadow=1;glass=0;comic=0;gradientColor=none;fontFamily=Courier New;fontColor=#FFFFFF;fillColor=#f2cc8f;" vertex="1" parent="1">
          <mxGeometry x="540" y="185" width="90" height="30" as="geometry" />
        </mxCell>
        <mxCell id="LYip8ZhevDrjSwZSwDEI-33" value="line&lt;br&gt;#696773" style="rounded=1;whiteSpace=wrap;html=1;fillColor=#696773;strokeColor=none;shadow=1;glass=0;comic=0;gradientColor=none;fontFamily=Courier New;fontColor=#FFFFFF;" vertex="1" parent="1">
          <mxGeometry x="640" y="360" width="90" height="30" as="geometry" />
        </mxCell>
        <mxCell id="LYip8ZhevDrjSwZSwDEI-34" value="color4&lt;br&gt;#e07a5f" style="rounded=1;whiteSpace=wrap;html=1;strokeColor=none;shadow=1;glass=0;comic=0;gradientColor=none;fontFamily=Courier New;fontColor=#FFFFFF;fillColor=#e07a5f;" vertex="1" parent="1">
          <mxGeometry x="640" y="310" width="90" height="30" as="geometry" />
        </mxCell>
        <mxCell id="LYip8ZhevDrjSwZSwDEI-35" value="background&lt;br&gt;#f4f1de" style="rounded=1;whiteSpace=wrap;html=1;strokeColor=none;shadow=1;glass=0;comic=0;gradientColor=none;fontFamily=Courier New;fontColor=#FFFFFF;fillColor=#f4f1de;" vertex="1" parent="1">
          <mxGeometry x="640" y="410" width="90" height="30" as="geometry" />
        </mxCell>
        <mxCell id="LYip8ZhevDrjSwZSwDEI-36" value="&lt;font face=&quot;Comic Sans MS&quot; style=&quot;font-size: 17px&quot;&gt;&lt;font style=&quot;font-size: 17px&quot;&gt;Title Font&lt;br&gt;Comic Sans MS&lt;/font&gt;&lt;br&gt;&lt;/font&gt;" style="text;html=1;strokeColor=none;fillColor=none;align=center;verticalAlign=middle;whiteSpace=wrap;rounded=0;fontColor=#3d405b;" vertex="1" parent="1">
          <mxGeometry x="370" y="190" width="150" height="20" as="geometry" />
        </mxCell>
        <mxCell id="LYip8ZhevDrjSwZSwDEI-37" value="" style="rounded=1;whiteSpace=wrap;html=1;fillColor=#eff1f3;strokeColor=none;shadow=0;glass=0;comic=0;gradientColor=none;fontFamily=Courier New;fontColor=#FFFFFF;" vertex="1" parent="1">
          <mxGeometry x="240" y="560" width="390" height="250" as="geometry" />
        </mxCell>
        <mxCell id="LYip8ZhevDrjSwZSwDEI-38" value="&lt;font color=&quot;#ffffff&quot; face=&quot;Courier New&quot;&gt;animals&lt;/font&gt;" style="rounded=1;whiteSpace=wrap;html=1;strokeColor=none;shadow=1;glass=0;comic=0;gradientColor=none;fillColor=#95E1D3;" vertex="1" parent="1">
          <mxGeometry x="250" y="680" width="90" height="30" as="geometry" />
        </mxCell>
        <mxCell id="LYip8ZhevDrjSwZSwDEI-39" value="" style="endArrow=classic;html=1;exitX=1;exitY=0.5;exitDx=0;exitDy=0;strokeWidth=2;dashed=1;strokeColor=#696773;entryX=0;entryY=0.5;entryDx=0;entryDy=0;rounded=0;" edge="1" source="LYip8ZhevDrjSwZSwDEI-38" target="LYip8ZhevDrjSwZSwDEI-42" parent="1">
          <mxGeometry width="50" height="50" relative="1" as="geometry">
            <mxPoint x="390" y="740" as="sourcePoint" />
            <mxPoint x="420" y="695" as="targetPoint" />
          </mxGeometry>
        </mxCell>
        <mxCell id="LYip8ZhevDrjSwZSwDEI-40" value="&lt;b style=&quot;color: rgb(105 , 103 , 115)&quot;&gt;category2&lt;/b&gt;" style="edgeLabel;html=1;align=center;verticalAlign=middle;resizable=0;points=[];fontFamily=Courier New;fontColor=#FFFFFF;labelBackgroundColor=none;" vertex="1" connectable="0" parent="LYip8ZhevDrjSwZSwDEI-39">
          <mxGeometry x="0.0311" y="2" relative="1" as="geometry">
            <mxPoint x="7" y="-13" as="offset" />
          </mxGeometry>
        </mxCell>
        <mxCell id="LYip8ZhevDrjSwZSwDEI-41" value="cat" style="rounded=1;whiteSpace=wrap;html=1;strokeColor=none;shadow=1;glass=0;comic=0;gradientColor=none;fontFamily=Courier New;fontColor=#FFFFFF;fillColor=#f38181;" vertex="1" parent="1">
          <mxGeometry x="520" y="630" width="90" height="30" as="geometry" />
        </mxCell>
        <mxCell id="LYip8ZhevDrjSwZSwDEI-42" value="dog" style="rounded=1;whiteSpace=wrap;html=1;strokeColor=none;shadow=1;glass=0;comic=0;gradientColor=none;fontFamily=Courier New;fontColor=#FFFFFF;fillColor=#f38181;" vertex="1" parent="1">
          <mxGeometry x="520" y="680" width="90" height="30" as="geometry" />
        </mxCell>
        <mxCell id="LYip8ZhevDrjSwZSwDEI-43" value="pig" style="rounded=1;whiteSpace=wrap;html=1;strokeColor=none;shadow=1;glass=0;comic=0;gradientColor=none;fontFamily=Courier New;fontColor=#FFFFFF;fillColor=#f38181;" vertex="1" parent="1">
          <mxGeometry x="520" y="730" width="90" height="30" as="geometry" />
        </mxCell>
        <mxCell id="LYip8ZhevDrjSwZSwDEI-44" value="" style="endArrow=classic;html=1;exitX=1;exitY=0.25;exitDx=0;exitDy=0;strokeWidth=2;dashed=1;strokeColor=#696773;entryX=0;entryY=0.5;entryDx=0;entryDy=0;rounded=0;" edge="1" source="LYip8ZhevDrjSwZSwDEI-38" target="LYip8ZhevDrjSwZSwDEI-41" parent="1">
          <mxGeometry width="50" height="50" relative="1" as="geometry">
            <mxPoint x="390" y="740" as="sourcePoint" />
            <mxPoint x="420" y="695" as="targetPoint" />
            <Array as="points">
              <mxPoint x="380" y="688" />
              <mxPoint x="380" y="645" />
            </Array>
          </mxGeometry>
        </mxCell>
        <mxCell id="LYip8ZhevDrjSwZSwDEI-45" value="&lt;font color=&quot;#696773&quot;&gt;&lt;b&gt;category1&lt;/b&gt;&lt;/font&gt;" style="edgeLabel;html=1;align=center;verticalAlign=middle;resizable=0;points=[];fontFamily=Courier New;fontColor=#FFFFFF;labelBackgroundColor=none;" vertex="1" connectable="0" parent="LYip8ZhevDrjSwZSwDEI-44">
          <mxGeometry x="0.2736" y="1" relative="1" as="geometry">
            <mxPoint y="-14" as="offset" />
          </mxGeometry>
        </mxCell>
        <mxCell id="LYip8ZhevDrjSwZSwDEI-46" value="" style="endArrow=classic;html=1;exitX=1;exitY=0.75;exitDx=0;exitDy=0;strokeWidth=2;dashed=1;strokeColor=#696773;entryX=0;entryY=0.5;entryDx=0;entryDy=0;rounded=0;" edge="1" source="LYip8ZhevDrjSwZSwDEI-38" target="LYip8ZhevDrjSwZSwDEI-43" parent="1">
          <mxGeometry width="50" height="50" relative="1" as="geometry">
            <mxPoint x="390" y="740" as="sourcePoint" />
            <mxPoint x="420" y="695" as="targetPoint" />
            <Array as="points">
              <mxPoint x="380" y="703" />
              <mxPoint x="380" y="745" />
            </Array>
          </mxGeometry>
        </mxCell>
        <mxCell id="LYip8ZhevDrjSwZSwDEI-47" value="&lt;b style=&quot;color: rgb(105 , 103 , 115)&quot;&gt;category3&lt;/b&gt;" style="edgeLabel;html=1;align=center;verticalAlign=middle;resizable=0;points=[];fontFamily=Courier New;fontColor=#FFFFFF;labelBackgroundColor=none;" vertex="1" connectable="0" parent="LYip8ZhevDrjSwZSwDEI-46">
          <mxGeometry x="0.1604" y="3" relative="1" as="geometry">
            <mxPoint x="13" y="-12" as="offset" />
          </mxGeometry>
        </mxCell>
        <mxCell id="LYip8ZhevDrjSwZSwDEI-48" value="color1&lt;br&gt;#95e1d3" style="rounded=1;whiteSpace=wrap;html=1;strokeColor=none;shadow=1;glass=0;comic=0;gradientColor=none;fontFamily=Courier New;fontColor=#FFFFFF;fillColor=#95e1d3;" vertex="1" parent="1">
          <mxGeometry x="650" y="550" width="90" height="30" as="geometry" />
        </mxCell>
        <mxCell id="LYip8ZhevDrjSwZSwDEI-49" value="color2&lt;br&gt;#eaffd0" style="rounded=1;whiteSpace=wrap;html=1;strokeColor=none;shadow=1;glass=0;comic=0;gradientColor=none;fontFamily=Courier New;fontColor=#FFFFFF;fillColor=#eaffd0;" vertex="1" parent="1">
          <mxGeometry x="650" y="600" width="90" height="30" as="geometry" />
        </mxCell>
        <mxCell id="LYip8ZhevDrjSwZSwDEI-50" value="color3&lt;br&gt;#fce38a" style="rounded=1;whiteSpace=wrap;html=1;strokeColor=none;shadow=1;glass=0;comic=0;gradientColor=none;fontFamily=Courier New;fontColor=#FFFFFF;fillColor=#fce38a;" vertex="1" parent="1">
          <mxGeometry x="650" y="650" width="90" height="30" as="geometry" />
        </mxCell>
        <mxCell id="LYip8ZhevDrjSwZSwDEI-51" value="line&lt;br&gt;#696773" style="rounded=1;whiteSpace=wrap;html=1;fillColor=#696773;strokeColor=none;shadow=1;glass=0;comic=0;gradientColor=none;fontFamily=Courier New;fontColor=#FFFFFF;" vertex="1" parent="1">
          <mxGeometry x="650" y="750" width="90" height="30" as="geometry" />
        </mxCell>
        <mxCell id="LYip8ZhevDrjSwZSwDEI-52" value="color4&lt;br&gt;#f38181" style="rounded=1;whiteSpace=wrap;html=1;strokeColor=none;shadow=1;glass=0;comic=0;gradientColor=none;fontFamily=Courier New;fontColor=#FFFFFF;fillColor=#f38181;" vertex="1" parent="1">
          <mxGeometry x="650" y="700" width="90" height="30" as="geometry" />
        </mxCell>
        <mxCell id="LYip8ZhevDrjSwZSwDEI-53" value="background&lt;br&gt;#EFF1F3" style="rounded=1;whiteSpace=wrap;html=1;fillColor=#eff1f3;strokeColor=none;shadow=1;glass=0;comic=0;gradientColor=none;fontFamily=Courier New;fontColor=#FFFFFF;" vertex="1" parent="1">
          <mxGeometry x="650" y="800" width="90" height="30" as="geometry" />
        </mxCell>
        <mxCell id="LYip8ZhevDrjSwZSwDEI-54" value="&lt;font face=&quot;Comic Sans MS&quot; style=&quot;font-size: 17px&quot;&gt;&lt;font color=&quot;#696773&quot; style=&quot;font-size: 17px&quot;&gt;Title Font&lt;br&gt;Comic Sans MS&lt;/font&gt;&lt;br&gt;&lt;/font&gt;" style="text;html=1;strokeColor=none;fillColor=none;align=center;verticalAlign=middle;whiteSpace=wrap;rounded=0;" vertex="1" parent="1">
          <mxGeometry x="380" y="580" width="150" height="20" as="geometry" />
        </mxCell>
        <mxCell id="LYip8ZhevDrjSwZSwDEI-55" value="" style="rounded=1;whiteSpace=wrap;html=1;fillColor=#0b1922;strokeColor=none;shadow=0;glass=0;comic=0;gradientColor=none;fontFamily=Courier New;fontColor=#FFFFFF;" vertex="1" parent="1">
          <mxGeometry x="250" y="950" width="390" height="250" as="geometry" />
        </mxCell>
        <mxCell id="LYip8ZhevDrjSwZSwDEI-56" value="&lt;font color=&quot;#ffffff&quot; face=&quot;Courier New&quot;&gt;animals&lt;/font&gt;" style="rounded=1;whiteSpace=wrap;html=1;strokeColor=none;shadow=1;glass=0;comic=0;gradientColor=none;fillColor=#04a789;" vertex="1" parent="1">
          <mxGeometry x="260" y="1070" width="90" height="30" as="geometry" />
        </mxCell>
        <mxCell id="LYip8ZhevDrjSwZSwDEI-57" value="" style="endArrow=classic;html=1;exitX=1;exitY=0.5;exitDx=0;exitDy=0;strokeWidth=2;dashed=1;strokeColor=#e7e8e9;entryX=0;entryY=0.5;entryDx=0;entryDy=0;rounded=0;" edge="1" source="LYip8ZhevDrjSwZSwDEI-56" target="LYip8ZhevDrjSwZSwDEI-60" parent="1">
          <mxGeometry width="50" height="50" relative="1" as="geometry">
            <mxPoint x="400" y="1130" as="sourcePoint" />
            <mxPoint x="430" y="1085" as="targetPoint" />
          </mxGeometry>
        </mxCell>
        <mxCell id="LYip8ZhevDrjSwZSwDEI-58" value="&lt;b style=&quot;&quot;&gt;category2&lt;/b&gt;" style="edgeLabel;html=1;align=center;verticalAlign=middle;resizable=0;points=[];fontFamily=Courier New;fontColor=#e7e8e9;labelBackgroundColor=none;" vertex="1" connectable="0" parent="LYip8ZhevDrjSwZSwDEI-57">
          <mxGeometry x="0.0311" y="2" relative="1" as="geometry">
            <mxPoint x="7" y="-13" as="offset" />
          </mxGeometry>
        </mxCell>
        <mxCell id="LYip8ZhevDrjSwZSwDEI-59" value="cat" style="rounded=1;whiteSpace=wrap;html=1;strokeColor=none;shadow=1;glass=0;comic=0;gradientColor=none;fontFamily=Courier New;fontColor=#FFFFFF;fillColor=#c8167e;" vertex="1" parent="1">
          <mxGeometry x="530" y="1020" width="90" height="30" as="geometry" />
        </mxCell>
        <mxCell id="LYip8ZhevDrjSwZSwDEI-60" value="dog" style="rounded=1;whiteSpace=wrap;html=1;strokeColor=none;shadow=1;glass=0;comic=0;gradientColor=none;fontFamily=Courier New;fontColor=#FFFFFF;fillColor=#c8167e;" vertex="1" parent="1">
          <mxGeometry x="530" y="1070" width="90" height="30" as="geometry" />
        </mxCell>
        <mxCell id="LYip8ZhevDrjSwZSwDEI-61" value="pig" style="rounded=1;whiteSpace=wrap;html=1;strokeColor=none;shadow=1;glass=0;comic=0;gradientColor=none;fontFamily=Courier New;fontColor=#FFFFFF;fillColor=#c8167e;" vertex="1" parent="1">
          <mxGeometry x="530" y="1120" width="90" height="30" as="geometry" />
        </mxCell>
        <mxCell id="LYip8ZhevDrjSwZSwDEI-62" value="" style="endArrow=classic;html=1;exitX=1;exitY=0.25;exitDx=0;exitDy=0;strokeWidth=2;dashed=1;strokeColor=#e7e8e9;entryX=0;entryY=0.5;entryDx=0;entryDy=0;rounded=0;" edge="1" source="LYip8ZhevDrjSwZSwDEI-56" target="LYip8ZhevDrjSwZSwDEI-59" parent="1">
          <mxGeometry width="50" height="50" relative="1" as="geometry">
            <mxPoint x="400" y="1130" as="sourcePoint" />
            <mxPoint x="430" y="1085" as="targetPoint" />
            <Array as="points">
              <mxPoint x="390" y="1078" />
              <mxPoint x="390" y="1035" />
            </Array>
          </mxGeometry>
        </mxCell>
        <mxCell id="LYip8ZhevDrjSwZSwDEI-63" value="&lt;font&gt;&lt;b&gt;category1&lt;/b&gt;&lt;/font&gt;" style="edgeLabel;html=1;align=center;verticalAlign=middle;resizable=0;points=[];fontFamily=Courier New;fontColor=#e7e8e9;labelBackgroundColor=none;" vertex="1" connectable="0" parent="LYip8ZhevDrjSwZSwDEI-62">
          <mxGeometry x="0.2736" y="1" relative="1" as="geometry">
            <mxPoint y="-14" as="offset" />
          </mxGeometry>
        </mxCell>
        <mxCell id="LYip8ZhevDrjSwZSwDEI-64" value="" style="endArrow=classic;html=1;exitX=1;exitY=0.75;exitDx=0;exitDy=0;strokeWidth=2;dashed=1;strokeColor=#e7e8e9;entryX=0;entryY=0.5;entryDx=0;entryDy=0;rounded=0;" edge="1" source="LYip8ZhevDrjSwZSwDEI-56" target="LYip8ZhevDrjSwZSwDEI-61" parent="1">
          <mxGeometry width="50" height="50" relative="1" as="geometry">
            <mxPoint x="400" y="1130" as="sourcePoint" />
            <mxPoint x="430" y="1085" as="targetPoint" />
            <Array as="points">
              <mxPoint x="390" y="1093" />
              <mxPoint x="390" y="1135" />
            </Array>
          </mxGeometry>
        </mxCell>
        <mxCell id="LYip8ZhevDrjSwZSwDEI-65" value="&lt;b style=&quot;&quot;&gt;category3&lt;/b&gt;" style="edgeLabel;html=1;align=center;verticalAlign=middle;resizable=0;points=[];fontFamily=Courier New;fontColor=#e7e8e9;labelBackgroundColor=none;" vertex="1" connectable="0" parent="LYip8ZhevDrjSwZSwDEI-64">
          <mxGeometry x="0.1604" y="3" relative="1" as="geometry">
            <mxPoint x="13" y="-12" as="offset" />
          </mxGeometry>
        </mxCell>
        <mxCell id="LYip8ZhevDrjSwZSwDEI-66" value="color1&lt;br&gt;#0283c0" style="rounded=1;whiteSpace=wrap;html=1;strokeColor=none;shadow=1;glass=0;comic=0;gradientColor=none;fontFamily=Courier New;fontColor=#FFFFFF;fillColor=#0283c0;" vertex="1" parent="1">
          <mxGeometry x="660" y="940" width="90" height="30" as="geometry" />
        </mxCell>
        <mxCell id="LYip8ZhevDrjSwZSwDEI-67" value="color2&lt;br&gt;#04a789" style="rounded=1;whiteSpace=wrap;html=1;strokeColor=none;shadow=1;glass=0;comic=0;gradientColor=none;fontFamily=Courier New;fontColor=#FFFFFF;fillColor=#04a789;" vertex="1" parent="1">
          <mxGeometry x="660" y="990" width="90" height="30" as="geometry" />
        </mxCell>
        <mxCell id="LYip8ZhevDrjSwZSwDEI-68" value="color3&lt;br&gt;#fcd701" style="rounded=1;whiteSpace=wrap;html=1;strokeColor=none;shadow=1;glass=0;comic=0;gradientColor=none;fontFamily=Courier New;fontColor=#FFFFFF;fillColor=#fcd701;" vertex="1" parent="1">
          <mxGeometry x="660" y="1040" width="90" height="30" as="geometry" />
        </mxCell>
        <mxCell id="LYip8ZhevDrjSwZSwDEI-69" value="line&lt;br&gt;#e7e8e9" style="rounded=1;whiteSpace=wrap;html=1;fillColor=#e7e8e9;strokeColor=none;shadow=1;glass=0;comic=0;gradientColor=none;fontFamily=Courier New;fontColor=#FFFFFF;" vertex="1" parent="1">
          <mxGeometry x="660" y="1140" width="90" height="30" as="geometry" />
        </mxCell>
        <mxCell id="LYip8ZhevDrjSwZSwDEI-70" value="color4&lt;br&gt;#c8167e" style="rounded=1;whiteSpace=wrap;html=1;strokeColor=none;shadow=1;glass=0;comic=0;gradientColor=none;fontFamily=Courier New;fontColor=#FFFFFF;fillColor=#c8167e;" vertex="1" parent="1">
          <mxGeometry x="660" y="1090" width="90" height="30" as="geometry" />
        </mxCell>
        <mxCell id="LYip8ZhevDrjSwZSwDEI-71" value="background&lt;br&gt;#0b1922" style="rounded=1;whiteSpace=wrap;html=1;fillColor=#0b1922;strokeColor=none;shadow=1;glass=0;comic=0;gradientColor=none;fontFamily=Courier New;fontColor=#FFFFFF;" vertex="1" parent="1">
          <mxGeometry x="660" y="1190" width="90" height="30" as="geometry" />
        </mxCell>
        <mxCell id="LYip8ZhevDrjSwZSwDEI-72" value="&lt;font face=&quot;Comic Sans MS&quot; style=&quot;font-size: 17px&quot;&gt;&lt;font style=&quot;font-size: 17px&quot;&gt;Title Font&lt;br&gt;Comic Sans MS&lt;/font&gt;&lt;br&gt;&lt;/font&gt;" style="text;html=1;strokeColor=none;fillColor=none;align=center;verticalAlign=middle;whiteSpace=wrap;rounded=0;fontColor=#e7e8e9;" vertex="1" parent="1">
          <mxGeometry x="390" y="970" width="150" height="20" as="geometry" />
        </mxCell>
        <mxCell id="LYip8ZhevDrjSwZSwDEI-145" style="edgeStyle=orthogonalEdgeStyle;rounded=0;orthogonalLoop=1;jettySize=auto;html=1;exitX=0.5;exitY=1;exitDx=0;exitDy=0;" edge="1" parent="1" source="LYip8ZhevDrjSwZSwDEI-2" target="LYip8ZhevDrjSwZSwDEI-2">
          <mxGeometry relative="1" as="geometry" />
        </mxCell>
        <mxCell id="LYip8ZhevDrjSwZSwDEI-153" value="" style="triangle;whiteSpace=wrap;html=1;rotation=-90;strokeWidth=2;strokeColor=#4D4D4D;fillColor=#E07A5F;" vertex="1" parent="1">
          <mxGeometry x="410" y="-104" width="65.5" height="95.5" as="geometry" />
        </mxCell>
        <mxCell id="LYip8ZhevDrjSwZSwDEI-150" value="" style="triangle;whiteSpace=wrap;html=1;rotation=-90;strokeWidth=2;strokeColor=#4D4D4D;fillColor=#04a789;" vertex="1" parent="1">
          <mxGeometry x="429.75" y="-67.75" width="26.5" height="40" as="geometry" />
        </mxCell>
      </root>
    </mxGraphModel>
  </diagram>
</mxfile>
